<svg version="1.1" id="Layer_1" xmlns="http://www.w3.org/2000/svg" xmlns:xlink="http://www.w3.org/1999/xlink" x="0px" y="0px"
	 width="100%" viewBox="0 0 1024 1024" enable-background="new 0 0 1024 1024" xml:space="preserve">
<path fill="#000000" opacity="1.000000" stroke="none" 
	d="
M514.444580,149.472900 
	C529.752930,151.314651 544.803467,151.767334 559.462219,154.945984 
	C586.450989,160.798294 603.249023,182.102829 602.254272,208.597763 
	C601.193481,236.850327 581.272156,257.239838 553.075806,259.460571 
	C540.637817,260.440186 528.558411,257.892029 516.325623,256.858734 
	C509.202026,256.256989 502.132507,254.885315 495.004425,254.510361 
	C489.968964,254.245468 489.320190,251.754074 489.808319,247.676743 
	C491.210571,235.964371 492.485870,224.236847 493.842560,212.518921 
	C496.078613,193.205856 498.531677,173.914810 500.459137,154.571198 
	C500.962372,149.520828 502.172150,147.156418 507.574493,148.606888 
	C509.638489,149.161041 511.853516,149.152740 514.444580,149.472900 
M520.285828,206.659241 
	C519.384399,214.570221 518.577332,222.493637 517.536438,230.386215 
	C517.099976,233.695175 517.497437,235.796402 521.479553,236.133224 
	C527.758362,236.664291 534.024109,237.435974 540.263855,238.326645 
	C556.960266,240.709915 572.326721,230.152359 575.564270,213.954987 
	C579.423401,194.647858 570.515991,179.395752 552.528015,175.459000 
	C544.935303,173.797302 537.073120,173.391846 529.354553,172.270264 
	C525.482361,171.707611 524.030945,173.307281 523.657654,177.058380 
	C522.704285,186.638275 521.461426,196.189377 520.285828,206.659241 
z"/>
<path fill="#000000" opacity="1.000000" stroke="none" 
	d="
M817.605713,595.539429 
	C817.127075,596.655945 816.810852,597.425964 816.485596,598.192261 
	C813.527832,605.159363 813.527405,605.159180 806.504089,603.723694 
	C808.366028,629.796936 798.003540,647.515137 777.783447,652.831238 
	C758.778809,657.827881 735.765442,647.288940 726.821838,629.975769 
	C719.427979,615.662598 721.357422,590.274109 743.383057,576.874878 
	C735.435974,573.350830 727.917542,569.972412 720.362610,566.677612 
	C710.393860,562.330200 710.382202,562.358643 714.697754,552.504333 
	C716.033386,549.454346 717.452209,546.436951 718.672913,543.341492 
	C719.793396,540.500549 721.402283,540.179932 724.125732,541.372742 
	C754.779663,554.798645 785.487549,568.101501 816.149353,581.509399 
	C822.391785,584.239197 822.333008,584.378052 819.720703,590.595032 
	C819.075684,592.130127 818.416504,593.659302 817.605713,595.539429 
M779.028259,626.756348 
	C787.679382,620.465881 791.059021,611.066956 787.779297,602.419006 
	C784.367371,593.422180 772.609619,586.832886 762.049744,588.190308 
	C754.166382,589.203735 749.109070,593.878723 746.479187,601.201355 
	C743.834412,608.565247 744.974976,615.391907 750.376404,621.134338 
	C757.649963,628.866821 768.386292,631.046570 779.028259,626.756348 
z"/>
<path fill="#000000" opacity="1.000000" stroke="none" 
	d="
M266.965027,476.088501 
	C277.499481,489.952759 279.265930,505.611359 277.835754,521.880615 
	C277.002258,531.361755 274.685852,540.537781 270.326508,549.140686 
	C268.701813,552.346924 266.902191,553.121948 263.605133,551.552795 
	C260.008331,549.841003 256.225311,548.489746 252.451920,547.188965 
	C249.143433,546.048462 248.599106,544.549805 250.284836,541.292358 
	C256.481567,529.318298 259.223846,516.662598 256.687225,503.168274 
	C256.128479,500.195801 255.295029,497.320007 253.528503,494.833252 
	C249.397766,489.018250 242.493301,489.212769 238.804031,495.311951 
	C235.989731,499.964630 235.241379,505.291748 234.290680,510.527954 
	C232.923233,518.059509 231.738266,525.640686 229.373154,532.941223 
	C225.665878,544.384766 218.749603,552.686523 206.142166,554.171021 
	C192.316803,555.798889 181.597229,550.243347 174.905258,538.105774 
	C166.827332,523.454285 166.240982,507.627533 169.114304,491.506927 
	C169.873077,487.249878 171.136841,483.124207 172.562180,479.020966 
	C174.050400,474.736694 176.151016,473.021790 180.650055,475.187134 
	C183.481979,476.550140 186.520462,477.589294 189.569626,478.370331 
	C193.866089,479.470886 195.062531,481.116974 193.041977,485.670197 
	C188.572647,495.741669 186.926651,506.375824 189.380020,517.336792 
	C189.847198,519.424011 190.533646,521.544617 191.560287,523.406555 
	C193.535110,526.988037 196.490585,529.139221 200.888260,528.846802 
	C205.248734,528.556946 207.324020,525.746948 208.625046,522.105408 
	C211.271469,514.698120 212.005020,506.856567 213.662735,499.224091 
	C214.828079,493.858643 215.947632,488.477844 217.939835,483.347748 
	C225.384521,464.177277 248.868744,458.886078 263.937073,472.960236 
	C264.909515,473.868500 265.802124,474.862183 266.965027,476.088501 
z"/>
<path fill="#000000" opacity="1.000000" stroke="none" 
	d="
M412.595337,232.509262 
	C428.539062,240.799576 444.170685,248.916962 460.055511,257.165833 
	C457.877563,260.678864 454.294434,260.663361 451.828400,262.403687 
	C440.100800,270.679993 428.813049,269.949585 417.166473,261.805298 
	C411.653503,257.950165 405.172638,255.479111 398.662933,252.141357 
	C395.320801,259.329407 391.562561,265.218262 395.875305,273.464905 
	C401.830750,284.852692 401.219330,285.172485 389.744446,290.453949 
	C379.079987,295.362396 379.025787,295.387024 374.124847,284.612305 
	C360.891754,255.519424 347.758972,226.380783 334.443451,197.325821 
	C332.793579,193.725754 332.802643,191.694107 336.973145,190.195267 
	C341.500946,188.568039 345.909302,186.497742 350.147369,184.208923 
	C353.746979,182.264908 355.408600,183.354279 356.933075,186.808044 
	C363.452911,201.579132 370.152039,216.271164 376.805054,230.983322 
	C377.822083,233.232361 378.940277,235.435669 380.295349,238.249008 
	C383.130768,234.572311 384.106659,230.704483 385.594208,227.152542 
	C389.258209,218.403473 392.734192,209.573288 396.138428,200.719055 
	C397.354767,197.555374 399.287842,195.510666 402.475708,194.211792 
	C409.363831,191.405273 416.124512,188.286026 422.960205,185.284683 
	C424.380341,187.732391 423.124878,189.319199 422.545135,190.929810 
	C418.374146,202.517746 414.259918,214.128311 409.880859,225.637787 
	C408.642853,228.891708 408.859528,231.037643 412.595337,232.509262 
z"/>
<path fill="#000000" opacity="1.000000" stroke="none" 
	d="
M394.347046,796.531616 
	C404.855438,799.862854 414.980560,803.075134 425.878357,806.532532 
	C428.344086,798.402100 430.817474,790.701721 432.972229,782.913330 
	C433.814606,779.868469 430.724731,780.050415 429.088593,779.517700 
	C417.224823,775.655090 405.356384,771.792786 393.391998,768.260315 
	C388.778442,766.898132 386.902496,765.024658 389.133087,760.168396 
	C390.509369,757.171997 391.255127,753.859375 392.054382,750.631958 
	C392.896912,747.229675 394.616364,746.666809 397.869690,747.730957 
	C410.363251,751.817383 422.979645,755.530457 435.454132,759.672119 
	C439.228088,760.925171 440.794312,760.024109 441.863495,756.303040 
	C444.482147,747.189514 447.608795,738.220764 450.170563,729.092590 
	C451.277985,725.146667 453.123505,724.526245 456.676056,725.843689 
	C461.507599,727.635376 466.403870,729.321289 471.385681,730.617004 
	C475.357025,731.649902 475.745026,733.533508 474.587463,737.151611 
	C465.766815,764.721497 457.120880,792.347290 448.421143,819.955872 
	C448.371063,820.114685 448.341766,820.280945 448.281403,820.435425 
	C446.611664,824.707886 447.098633,831.022461 443.099060,832.841858 
	C439.228668,834.602478 434.328827,830.957764 429.918915,829.578674 
	C410.546478,823.520508 391.224365,817.299744 371.817657,811.354370 
	C367.844360,810.137085 366.756195,808.428955 368.375977,804.552307 
	C369.716949,801.342957 370.660858,797.941467 371.498932,794.555420 
	C372.401733,790.907715 374.362000,790.168640 377.763550,791.333313 
	C383.115845,793.165955 388.559021,794.733154 394.347046,796.531616 
z"/>
<path fill="#000000" opacity="1.000000" stroke="none" 
	d="
M701.271240,690.281128 
	C708.240906,682.916687 714.963196,675.803284 721.872437,668.492065 
	C718.053101,664.830627 713.960022,664.888855 709.888245,665.717224 
	C699.100525,667.911865 690.409424,677.388062 688.495483,689.416931 
	C687.924133,693.007507 686.551208,694.361877 683.059387,694.138977 
	C679.906128,693.937683 676.733215,694.067322 673.572937,693.946045 
	C668.458862,693.749695 667.627197,692.662292 668.204163,687.413574 
	C669.739502,673.447144 677.284790,662.938599 687.701111,654.294922 
	C701.478394,642.862183 716.928284,639.017761 733.704285,646.697632 
	C762.428162,659.846802 767.151123,696.747192 743.130554,718.083191 
	C724.976624,734.208435 700.191040,733.270874 684.095703,716.033569 
	C681.347717,713.090637 681.165161,711.162659 684.148865,708.247192 
	C689.978210,702.551270 695.420959,696.459839 701.271240,690.281128 
M719.348022,692.835388 
	C715.598206,696.963013 711.848328,701.090576 708.086243,705.231628 
	C715.326477,711.078613 725.834900,709.455383 732.474854,701.932129 
	C739.126038,694.396179 739.607361,684.560669 734.030762,679.158020 
	C729.287537,683.541748 724.548279,687.921814 719.348022,692.835388 
z"/>
<path fill="#000000" opacity="1.000000" stroke="none" 
	d="
M609.021606,225.142502 
	C619.967712,210.252731 634.355774,204.027176 652.026123,208.059113 
	C670.170227,212.199158 683.412415,222.638184 687.626587,241.713058 
	C689.984375,252.385422 687.469421,262.481110 681.984253,271.938324 
	C679.986816,275.382080 678.123657,276.124146 674.473816,274.114044 
	C660.329163,266.324066 646.040283,258.795471 631.784424,251.208405 
	C629.776855,250.139969 627.938416,248.554092 625.463013,248.651581 
	C623.179504,254.465927 625.497864,262.336395 631.472046,267.205383 
	C638.481689,272.918213 646.234619,276.907837 655.776794,274.936829 
	C658.402771,274.394440 659.860107,275.404053 660.418762,278.057953 
	C660.965576,280.655945 661.757751,283.202057 662.433289,285.773315 
	C664.458008,293.479126 663.565918,294.870636 655.303833,295.258453 
	C636.802612,296.126892 621.781006,288.638580 610.402649,274.548889 
	C598.114990,259.333191 598.015686,243.399170 609.021606,225.142502 
M664.410034,237.233078 
	C657.875549,225.207428 637.788208,223.602005 632.883545,234.176208 
	C637.149414,237.765091 661.214355,250.369553 665.601440,251.200394 
	C667.804504,246.622345 666.738464,242.251282 664.410034,237.233078 
z"/>
<path fill="#000000" opacity="1.000000" stroke="none" 
	d="
M737.240967,412.726288 
	C727.022156,399.854401 720.915894,385.853577 723.412231,369.479858 
	C726.175232,351.356903 739.587463,338.306946 757.717285,335.086609 
	C774.917725,332.031372 792.064636,340.009094 801.159424,355.298370 
	C815.894043,380.069031 807.191040,407.910767 781.718933,417.955627 
	C777.938049,419.446594 776.206665,418.729614 774.532043,414.979401 
	C767.811951,399.929871 760.781067,385.018738 753.805420,370.084290 
	C752.987854,368.333893 752.563293,366.275146 750.795532,365.088959 
	C744.561157,369.253265 742.221863,377.623688 744.941589,386.571075 
	C747.249207,394.162537 751.427307,400.538177 758.559387,404.349091 
	C761.915649,406.142395 762.183838,408.042419 760.637451,411.120605 
	C759.296753,413.789337 758.072327,416.579071 757.285828,419.449432 
	C756.004700,424.125214 753.363464,424.042969 749.772827,422.245972 
	C745.097351,419.906036 740.948792,416.910706 737.240967,412.726288 
M786.639893,368.019196 
	C780.917969,358.578827 772.382263,354.824738 765.092041,358.542236 
	C766.933594,364.677582 778.950684,389.287994 781.303162,391.741699 
	C788.872742,386.082733 790.565308,379.188232 786.639893,368.019196 
z"/>
<path fill="#000000" opacity="1.000000" stroke="none" 
	d="
M769.154907,472.026428 
	C798.561157,455.781738 832.466187,475.247894 833.188904,508.458374 
	C833.559326,525.481873 828.304321,540.125977 813.634583,549.846802 
	C800.166199,558.771484 785.519836,559.029968 771.313477,552.034790 
	C756.801941,544.889404 749.824341,532.176453 748.691895,516.250977 
	C747.747925,502.976349 750.800781,490.827515 759.445862,480.360443 
	C762.137085,477.102020 765.351013,474.517975 769.154907,472.026428 
M769.303101,515.849548 
	C772.832214,533.266174 796.268188,535.488647 805.998901,526.699097 
	C814.712708,518.827942 814.979553,504.135345 806.197266,496.550476 
	C799.366638,490.651093 787.445801,489.164307 779.409241,493.530548 
	C770.903015,498.152039 768.059082,505.672943 769.303101,515.849548 
z"/>
<path fill="#000000" opacity="1.000000" stroke="none" 
	d="
M321.397278,348.612549 
	C320.098267,355.840729 315.970459,361.541199 312.245026,367.299744 
	C310.165894,370.513519 307.763123,366.044220 304.740570,366.082947 
	C308.278839,379.078491 303.220734,389.705780 295.146667,399.306549 
	C286.335785,409.783447 273.629791,411.938904 262.522247,405.075928 
	C254.680801,400.230957 250.798798,391.054047 252.302505,381.877472 
	C254.073624,371.068939 260.022339,362.133759 264.865814,352.689178 
	C265.691925,351.078278 266.518250,349.467468 267.309998,347.923889 
	C262.524567,343.815002 256.394592,344.119965 251.602692,348.885162 
	C244.780579,355.669189 241.835968,364.228638 241.350647,373.653046 
	C241.010590,380.256622 241.173813,380.267609 234.665741,380.170532 
	C232.834579,380.143188 231.003632,380.099518 229.172745,380.056854 
	C222.026779,379.890411 221.218338,379.244385 221.819016,372.275970 
	C223.032379,358.199890 227.533630,345.267731 236.509171,334.204498 
	C248.070358,319.954193 262.329254,316.611725 278.760254,324.984161 
	C293.131897,332.307190 307.055145,340.510223 321.397278,348.612549 
M289.404541,360.276672 
	C287.472931,357.363495 284.556213,355.967163 281.014343,354.677307 
	C277.210388,361.014771 273.340363,367.144836 271.034058,374.091431 
	C269.613068,378.371552 270.672913,381.968018 274.656982,384.378784 
	C278.559204,386.740021 281.959076,385.499939 285.033722,382.666504 
	C291.095856,377.079865 292.899902,368.740631 289.404541,360.276672 
z"/>
<path fill="#000000" opacity="1.000000" stroke="none" 
	d="
M351.630859,697.253052 
	C344.983917,695.125854 339.781250,697.288757 335.242523,701.462952 
	C327.703217,708.396667 322.572845,717.302368 316.152954,725.156982 
	C313.414612,728.507324 310.809448,731.971008 308.246094,735.458374 
	C306.610321,737.683899 305.098785,738.554810 302.557007,736.475037 
	C298.178284,732.892273 293.606384,729.541260 289.050049,726.181824 
	C286.860931,724.567810 286.565887,722.988525 288.268677,720.768066 
	C303.466858,700.948730 318.638123,681.108582 333.741638,661.217102 
	C335.672302,658.674316 337.327026,658.907410 339.514435,660.750488 
	C342.186371,663.001770 344.996765,665.092163 347.791321,667.193665 
	C354.144348,671.970825 354.155304,671.956238 350.996765,678.617310 
	C351.862854,680.110535 353.339539,679.544678 354.575104,679.580139 
	C371.620392,680.069458 386.165680,692.212646 389.713531,708.920349 
	C391.296570,716.375183 389.392944,723.309814 385.629730,729.500549 
	C376.443695,744.612183 364.603180,757.815491 354.212952,772.069763 
	C352.953186,773.798035 351.512543,773.817749 349.934723,772.610840 
	C345.042053,768.868042 340.160706,765.110413 335.284058,761.346680 
	C332.786560,759.419250 334.094360,757.649231 335.490417,755.819763 
	C342.662018,746.421936 349.808655,737.005066 356.959412,727.591370 
	C357.865631,726.398376 358.769104,725.202026 359.633087,723.978394 
	C367.773499,712.449158 365.104889,703.137451 351.630859,697.253052 
z"/>
<path fill="#000000" opacity="1.000000" stroke="none" 
	d="
M307.202209,296.619446 
	C309.275116,300.555328 311.925079,303.516327 315.190308,305.911591 
	C321.757446,310.729126 328.822144,312.126160 336.226959,308.155670 
	C343.637970,304.181915 348.452148,298.255524 347.696381,289.339478 
	C347.330139,285.018921 348.626007,282.876038 353.048126,282.251221 
	C356.653320,281.741791 360.215973,280.703461 363.693146,279.577362 
	C367.353729,278.391785 368.674469,279.750916 369.493744,283.278015 
	C371.167450,290.483826 369.908325,297.284546 366.869476,303.684784 
	C359.633179,318.925232 347.643951,328.717896 331.131287,332.173920 
	C303.045471,338.052124 277.349396,312.439941 282.570435,284.131226 
	C285.946777,265.824677 301.754211,249.324814 319.546722,245.521271 
	C325.048981,244.345032 330.450775,244.725876 335.823303,246.341202 
	C338.639618,247.187973 339.657043,248.693451 338.412292,251.535110 
	C337.679565,253.207794 337.149963,254.970123 336.542847,256.696991 
	C335.384277,259.992645 334.889313,263.769470 332.917023,266.468170 
	C330.463684,269.824951 326.446899,266.853119 323.119812,267.126495 
	C309.549072,268.241516 301.368958,282.818787 307.202209,296.619446 
z"/>
<path fill="#000000" opacity="1.000000" stroke="none" 
	d="
M684.793701,304.885132 
	C694.006165,284.022949 703.070312,263.510864 712.481934,242.212311 
	C719.044312,247.523376 724.109680,253.133759 728.918518,258.956421 
	C730.564697,260.949677 728.919189,263.111847 728.051514,265.032166 
	C721.609924,279.288483 715.116699,293.521423 708.652100,307.767365 
	C707.970703,309.268982 707.369324,310.806946 706.280945,313.399780 
	C715.923340,309.749329 724.683228,306.396637 733.470337,303.117035 
	C741.422913,300.148895 749.446167,297.365723 757.352966,294.282196 
	C760.280762,293.140381 762.269836,293.551392 764.345215,295.956543 
	C768.238586,300.468384 772.413330,304.737457 776.334595,308.960541 
	C775.806152,311.432892 773.830933,311.498138 772.407104,312.034882 
	C747.808350,321.307922 723.158020,330.444519 698.586548,339.788757 
	C695.078125,341.123016 692.730103,340.647247 690.328430,337.810150 
	C686.997620,333.875580 683.440857,330.115173 679.776978,326.485962 
	C677.576965,324.306763 677.031738,322.298187 678.438232,319.411591 
	C680.696045,314.778107 682.594849,309.969727 684.793701,304.885132 
z"/>
<path fill="#000000" opacity="1.000000" stroke="none" 
	d="
M241.428055,427.525513 
	C245.899399,428.539062 249.943680,429.531494 254.015778,430.392273 
	C263.309540,432.356781 268.827850,427.371033 267.237457,417.950043 
	C266.565765,413.971130 267.934692,412.822601 271.405365,412.528046 
	C273.556824,412.345490 275.683136,411.870575 277.821960,411.534515 
	C284.797028,410.438629 286.260742,411.223267 286.724518,418.352234 
	C287.439362,429.339050 284.973022,439.688110 277.442108,448.062073 
	C270.195190,456.120300 260.653381,456.893036 250.711105,454.825348 
	C239.977890,452.593140 229.302948,450.080688 219.047714,447.789886 
	C217.042038,448.737640 217.199341,450.271515 216.858749,451.481964 
	C214.641251,459.362701 214.667480,459.367035 206.344833,457.455170 
	C205.534668,457.269043 204.701233,457.182800 203.892960,456.989990 
	C196.422699,455.207855 196.133362,455.128998 197.983566,447.966492 
	C199.028976,443.919525 197.667725,442.490906 194.046494,441.801300 
	C190.620621,441.148895 187.272995,440.071991 183.839981,439.474854 
	C180.841751,438.953308 179.933716,437.535034 180.678055,434.625305 
	C182.078003,429.152863 183.415771,423.660339 184.588654,418.135681 
	C185.183716,415.332733 186.510605,414.649323 189.201294,415.411469 
	C192.718430,416.407684 196.417068,416.815125 199.868393,417.978088 
	C203.876068,419.328491 205.323395,417.841064 205.885483,414.040253 
	C206.395050,410.594604 207.439697,407.231506 208.130295,403.808197 
	C208.772079,400.626770 210.051239,399.494263 213.668457,400.310425 
	C228.116974,403.570312 228.141998,403.422089 224.686508,417.762573 
	C224.300446,419.364777 224.068344,421.004089 223.622833,423.385071 
	C229.512466,424.759888 235.263046,426.102264 241.428055,427.525513 
z"/>
<path fill="#000000" opacity="1.000000" stroke="none" 
	d="
M237.333435,632.273132 
	C256.653229,621.708618 275.706787,611.422791 294.601288,600.852661 
	C298.312042,598.776733 300.123779,599.300415 301.842987,603.028381 
	C303.722351,607.103638 305.793335,611.143005 308.262268,614.879944 
	C311.061432,619.116699 309.587494,621.088257 305.570892,623.254150 
	C283.730408,635.031372 262.016754,647.043762 240.258865,658.974182 
	C232.227005,663.378296 224.142059,667.689148 216.186584,672.227112 
	C213.052521,674.014709 211.133820,673.722656 209.490524,670.311768 
	C207.324341,665.815552 204.927139,661.411316 202.337311,657.144775 
	C200.450806,654.037048 200.837006,652.298218 204.182129,650.518738 
	C215.208481,644.653076 226.080322,638.496887 237.333435,632.273132 
z"/>
<path fill="#000000" opacity="1.000000" stroke="none" 
	d="
M288.010101,653.986450 
	C296.974579,647.031311 305.742035,640.397949 314.299225,633.503601 
	C317.240417,631.133972 319.000183,631.412964 321.083313,634.464661 
	C323.896545,638.585815 326.900421,642.608643 330.157135,646.385071 
	C332.622894,649.244263 332.239624,651.087585 329.368622,653.293274 
	C313.922211,665.159973 298.566833,677.145081 283.169891,689.076294 
	C271.456055,698.153442 259.616180,707.073181 248.070877,716.359497 
	C244.498581,719.232727 242.601532,718.677551 240.231888,715.145569 
	C237.641266,711.284424 234.675552,707.646179 231.609680,704.141418 
	C229.092300,701.263611 229.136002,699.463806 232.396103,696.979309 
	C250.937897,682.848694 269.304443,668.488159 288.010101,653.986450 
z"/>
<path fill="#000000" opacity="1.000000" stroke="none" 
	d="
M743.923218,440.125488 
	C744.764587,437.023224 747.283386,437.213867 749.255676,436.828094 
	C782.844177,430.258484 816.455383,423.804474 850.037781,417.203857 
	C853.182373,416.585846 854.746521,417.267273 855.298157,420.487701 
	C856.166931,425.559021 857.216309,430.599579 858.204712,435.650146 
	C858.824158,438.815094 858.485107,440.729889 854.440796,441.496490 
	C820.650696,447.901306 786.906006,454.546875 753.165466,461.210358 
	C749.537476,461.926849 747.629272,461.179474 747.058167,457.191223 
	C746.258484,451.607025 744.984680,446.090698 743.923218,440.125488 
z"/>
<path fill="#000000" opacity="1.000000" stroke="none" 
	d="
M651.267822,758.222900 
	C657.835999,750.467407 656.837402,742.548340 652.448181,734.755615 
	C646.896851,724.899902 641.173889,715.127808 635.133667,705.566833 
	C632.645996,701.629272 632.457336,699.334290 637.026245,697.088562 
	C641.488708,694.895142 645.649841,692.070190 649.864197,689.397766 
	C652.185059,687.925964 653.700928,688.240723 655.132751,690.665833 
	C667.737854,712.015442 680.378113,733.344482 693.101196,754.623901 
	C694.773254,757.420349 694.363220,759.071716 691.513672,760.595642 
	C687.555054,762.712769 683.585999,764.878052 679.910706,767.438049 
	C676.405396,769.879700 673.958618,769.895325 672.203491,765.653931 
	C671.898743,764.917603 671.338623,764.286926 670.434387,762.897278 
	C667.715454,771.402283 662.991760,777.719360 656.279053,782.648132 
	C653.081360,784.996094 650.950439,785.463928 648.943542,781.353699 
	C647.050049,777.475708 644.857849,773.706909 642.437195,770.133850 
	C640.267151,766.930603 640.965393,765.158936 644.310059,763.612549 
	C646.874878,762.426758 649.087097,760.596130 651.267822,758.222900 
z"/>
<path fill="#000000" opacity="1.000000" stroke="none" 
	d="
M248.036438,560.625793 
	C250.486359,560.972778 250.702713,562.777100 251.222382,564.320251 
	C254.887024,575.202026 258.431244,586.125977 262.256531,596.950806 
	C263.386841,600.149353 263.033722,601.904724 259.561096,602.867554 
	C255.716354,603.933411 251.940308,605.269592 248.185745,606.629944 
	C245.794601,607.496399 244.460541,606.878662 243.645248,604.435303 
	C239.798920,592.908081 235.886215,581.402954 231.948364,569.906555 
	C231.072067,567.348267 231.756226,565.821533 234.393387,565.005005 
	C238.842377,563.627563 243.247360,562.108032 248.036438,560.625793 
z"/>
<path fill="#000000" opacity="1.000000" stroke="none" 
	d="
M604.316528,745.017029 
	C592.174011,746.190857 584.078064,739.224731 585.165161,729.002380 
	C585.944458,721.674561 591.471252,716.212402 598.876953,715.450867 
	C606.341980,714.683228 612.969971,719.243164 615.087830,726.603699 
	C617.079224,733.524841 614.140869,740.165039 607.474365,743.733704 
	C606.600342,744.201538 605.646729,744.520752 604.316528,745.017029 
z"/>
</svg>