
<svg version="1.0" xmlns="http://www.w3.org/2000/svg"
 width="810.000000pt" height="810.000000pt" viewBox="0 0 810.000000 810.000000"
 preserveAspectRatio="xMidYMid meet">

<g transform="translate(0.000000,810.000000) scale(0.100000,-0.100000)"
fill="#000000" stroke="none">
<path d="M3956 6893 c-3 -21 -6 -60 -6 -87 0 -28 -4 -75 -10 -105 -16 -93 -40
-303 -40 -356 0 -28 -4 -64 -9 -81 -5 -17 -10 -60 -12 -95 l-4 -64 65 -7 c36
-3 110 -11 165 -17 257 -29 310 -25 420 25 241 111 300 441 115 647 -69 78
-174 118 -370 141 -74 9 -165 21 -203 26 -103 15 -104 15 -111 -27z m331 -151
c178 -22 273 -113 273 -260 0 -106 -58 -202 -145 -243 -43 -20 -140 -24 -267
-12 l-68 6 0 45 c0 25 4 73 9 106 5 34 15 113 21 176 6 63 13 135 16 158 l6
44 36 -5 c20 -3 74 -10 119 -15z"/>
<path d="M2755 6642 c-6 -5 -30 -17 -55 -27 -80 -33 -82 -12 19 -228 23 -49
41 -90 41 -92 0 -2 20 -45 44 -97 24 -51 53 -113 63 -138 53 -121 70 -158 98
-216 l30 -62 65 31 c36 17 73 33 82 36 15 5 12 15 -18 81 l-35 74 22 53 c12
29 25 56 30 59 4 2 69 -27 143 -66 75 -38 140 -70 145 -70 5 0 50 19 101 43
68 33 88 46 78 54 -7 5 -62 35 -123 66 -274 138 -279 141 -266 166 5 9 21 48
34 86 14 39 39 107 55 153 16 45 26 82 21 82 -19 0 -189 -86 -189 -96 0 -5
-11 -34 -25 -62 -14 -29 -25 -56 -25 -60 0 -10 -78 -193 -85 -200 -4 -4 -64
117 -113 228 -11 25 -32 71 -46 102 -14 31 -30 68 -36 83 -9 25 -37 33 -55 17z"/>
<path d="M5020 6455 c-30 -7 -66 -17 -80 -22 -50 -21 -118 -93 -149 -156 -26
-54 -31 -75 -31 -139 0 -111 41 -193 131 -262 86 -65 167 -96 254 -96 86 0 91
5 75 79 l-13 61 -48 0 c-78 0 -169 47 -212 110 -19 28 -24 120 -6 120 10 0
159 -76 234 -120 17 -10 65 -36 107 -58 l78 -41 14 22 c55 83 68 222 29 309
-60 132 -240 223 -383 193z m156 -154 c61 -28 94 -76 94 -138 0 -27 -3 -52 -6
-56 -3 -3 -29 7 -58 22 -28 16 -90 49 -138 75 -97 52 -101 62 -35 95 52 26 90
26 143 2z"/>
<path d="M5624 6165 c-4 -11 -22 -53 -41 -93 -18 -40 -33 -74 -33 -76 0 -3
-16 -40 -36 -83 -20 -43 -49 -106 -65 -141 -16 -35 -29 -67 -29 -71 0 -5 -11
-28 -24 -53 -45 -85 -44 -95 26 -166 67 -70 71 -70 152 -31 22 10 45 19 50 19
6 0 38 11 71 24 33 14 142 55 242 93 101 37 183 71 183 75 0 3 -23 31 -51 62
-59 65 -46 65 -219 -2 -63 -24 -126 -48 -140 -52 -14 -5 -49 -18 -79 -29 -30
-11 -56 -19 -58 -17 -4 4 46 119 124 286 66 141 66 138 -5 212 -54 56 -62 61
-68 43z"/>
<path d="M2509 6155 c-69 -19 -103 -40 -164 -99 -140 -138 -154 -329 -32 -462
92 -102 214 -136 337 -94 150 51 260 184 260 315 0 82 -3 86 -58 70 -26 -7
-60 -16 -76 -19 -24 -6 -27 -11 -23 -33 13 -69 -53 -160 -133 -184 -33 -10
-46 -9 -83 5 -152 58 -186 229 -64 320 19 14 49 23 89 26 l60 5 23 68 23 68
-23 9 c-43 16 -90 18 -136 5z"/>
<path d="M1966 5540 c-22 -11 -51 -30 -64 -43 -72 -67 -144 -228 -146 -327
l-1 -55 66 -3 67 -3 7 57 c7 56 40 142 68 176 8 10 31 25 51 33 30 13 44 14
72 5 19 -6 34 -13 34 -16 0 -2 -19 -39 -43 -81 -64 -116 -77 -155 -77 -230 0
-55 4 -71 26 -100 41 -53 90 -70 190 -65 45 3 123 76 158 148 24 49 28 66 24
125 l-4 67 28 -14 c27 -14 28 -13 54 28 14 24 32 53 40 65 8 12 14 27 14 32 0
13 -309 182 -380 208 -52 19 -138 16 -184 -7z m291 -250 c46 -28 62 -84 39
-143 -27 -72 -79 -107 -130 -87 -39 14 -51 55 -32 105 20 51 74 145 84 145 4
0 21 -9 39 -20z"/>
<path d="M5970 5446 c-104 -29 -180 -89 -222 -175 -31 -62 -37 -184 -13 -249
48 -133 95 -196 178 -238 l47 -24 9 22 c5 13 17 41 26 62 l16 39 -49 43 c-99
87 -121 202 -53 287 20 24 29 21 45 -15 8 -18 39 -85 69 -148 30 -63 69 -146
86 -183 35 -79 37 -79 127 -21 144 91 184 267 97 429 -21 41 -101 123 -138
142 -38 20 -122 43 -155 42 -14 0 -45 -6 -70 -13z m180 -171 c86 -45 116 -182
54 -249 -41 -43 -31 -56 -153 209 -11 22 -17 43 -14 48 8 13 83 8 113 -8z"/>
<path d="M1635 4867 c-10 -40 -20 -75 -21 -79 -2 -3 -25 0 -51 8 -74 22 -102
19 -109 -13 -10 -45 -25 -107 -30 -124 -3 -13 5 -18 33 -23 21 -4 55 -12 77
-19 35 -10 38 -13 33 -41 -3 -17 -8 -38 -12 -47 -5 -12 6 -18 52 -29 32 -7 63
-15 70 -17 6 -3 14 12 18 36 8 50 25 65 56 52 13 -5 60 -17 104 -26 44 -10 90
-21 103 -26 13 -5 48 -9 78 -9 93 0 158 49 197 148 18 44 24 177 9 186 -5 3
-36 0 -69 -7 l-61 -11 0 -38 c-1 -85 -37 -105 -150 -82 -140 29 -157 32 -186
43 -21 9 -26 16 -21 29 6 17 25 108 25 123 0 8 -46 24 -96 32 -30 6 -30 6 -49
-66z"/>
<path d="M6685 4795 c-27 -7 -104 -23 -170 -36 -165 -30 -188 -35 -285 -54
-47 -9 -107 -21 -135 -26 -150 -27 -197 -37 -205 -45 -5 -5 -5 -26 0 -49 5
-22 13 -58 17 -80 10 -47 5 -46 153 -16 58 11 128 25 155 30 28 6 86 17 130
26 44 9 103 20 130 25 134 24 297 59 302 63 4 5 -31 177 -37 176 -3 0 -27 -7
-55 -14z"/>
<path d="M1847 4408 c-24 -7 -51 -26 -77 -55 -47 -54 -53 -70 -94 -268 -28
-137 -46 -165 -103 -165 -75 0 -117 110 -93 243 7 40 19 84 27 99 7 15 13 31
13 37 0 7 -114 51 -134 51 -13 0 -39 -75 -53 -158 -14 -79 -15 -104 -5 -165
25 -150 76 -233 169 -277 90 -42 209 -13 262 64 33 47 44 81 71 221 32 159 51
195 105 195 34 0 54 -12 79 -50 12 -19 16 -48 16 -125 0 -99 -12 -159 -46
-224 -16 -31 -10 -39 53 -63 79 -30 81 -29 121 82 13 34 17 80 17 196 0 152
-1 156 -43 239 -53 106 -166 154 -285 123z"/>
<path d="M6165 4404 c-84 -21 -170 -95 -212 -182 -24 -51 -27 -69 -28 -163 0
-97 2 -110 29 -164 36 -70 82 -116 149 -150 43 -21 64 -25 141 -25 108 0 158
19 224 83 54 52 74 91 97 187 16 64 17 82 6 135 -7 33 -22 81 -33 107 -23 55
-99 130 -154 153 -39 16 -181 29 -219 19z m164 -194 c110 -56 134 -167 56
-258 -32 -37 -69 -52 -133 -52 -117 0 -182 56 -182 158 0 74 28 122 93 158 35
20 122 17 166 -6z"/>
<path d="M5675 3788 c-7 -18 -22 -54 -34 -80 l-20 -47 22 -7 c12 -4 59 -24
105 -45 46 -22 89 -39 96 -39 18 0 39 -27 31 -40 -3 -5 -12 -10 -19 -10 -21 0
-83 -69 -107 -119 -16 -31 -24 -70 -27 -122 -4 -67 -1 -85 23 -137 40 -89 109
-148 219 -185 165 -56 348 44 396 216 8 30 11 71 7 112 l-6 64 25 -9 c14 -6
27 -10 30 -10 7 0 64 129 64 144 0 7 -19 21 -42 31 -90 37 -105 44 -181 79
-43 20 -80 36 -83 36 -2 0 -46 18 -96 41 -51 22 -106 46 -123 54 -16 7 -77 33
-135 59 -58 25 -111 46 -118 46 -7 0 -19 -15 -27 -32z m451 -344 c90 -42 128
-115 105 -202 -35 -127 -192 -158 -296 -58 -68 65 -73 153 -13 222 59 67 119
78 204 38z"/>
<path d="M1920 3655 c-14 -8 -34 -15 -45 -15 -49 -1 -48 -10 4 -166 46 -139
51 -149 76 -152 14 -2 32 1 38 6 7 5 27 13 45 17 17 3 32 7 32 8 -2 23 -108
311 -115 313 -5 2 -21 -3 -35 -11z"/>
<path d="M2280 3324 c-36 -20 -69 -39 -75 -43 -5 -5 -59 -34 -120 -66 -60 -32
-114 -61 -120 -65 -13 -10 -87 -50 -205 -113 -104 -55 -170 -95 -170 -102 0
-9 72 -135 81 -141 8 -5 70 26 254 128 39 21 77 42 85 48 8 5 35 19 60 31 25
13 67 36 93 51 27 16 83 47 125 69 117 62 142 79 142 94 0 18 -69 145 -78 145
-4 0 -36 -17 -72 -36z"/>
<path d="M2360 2994 c-74 -58 -166 -129 -205 -159 -261 -200 -335 -259 -335
-267 0 -10 89 -132 99 -136 5 -1 44 26 87 60 85 67 169 132 243 187 25 19 48
37 51 41 3 3 59 47 125 98 66 50 136 104 155 120 l34 29 -28 39 c-35 48 -78
94 -85 94 -3 0 -67 -48 -141 -106z"/>
<path d="M5545 2993 c-132 -53 -263 -220 -253 -324 l3 -34 64 0 64 0 17 54
c21 62 86 135 138 152 36 12 118 7 133 -8 5 -5 -58 -77 -149 -172 -86 -90
-160 -169 -164 -176 -9 -15 54 -80 102 -105 131 -66 268 -41 380 71 77 77 95
124 94 239 -1 67 -6 107 -18 134 -23 52 -118 143 -173 167 -56 24 -180 25
-238 2z m285 -340 c0 -50 -3 -58 -42 -99 -48 -50 -96 -67 -154 -54 -67 15 -65
22 52 140 109 111 109 111 126 89 12 -14 18 -39 18 -76z"/>
<path d="M2566 2778 c-46 -62 -132 -174 -190 -248 -58 -74 -106 -138 -106
-142 0 -4 17 -19 38 -34 20 -16 49 -39 64 -52 14 -13 31 -23 36 -21 5 2 46 54
92 114 132 175 176 215 237 215 45 0 105 -41 131 -88 21 -37 22 -46 12 -78
-11 -31 -166 -248 -223 -311 -17 -19 -18 -25 -6 -39 22 -26 119 -96 129 -92
14 5 239 307 261 350 24 47 26 171 4 214 -22 44 -94 112 -144 136 -25 12 -69
24 -98 26 l-53 4 17 29 c9 16 15 30 12 32 -2 1 -26 20 -54 42 -27 21 -55 43
-62 47 -8 6 -38 -26 -97 -104z"/>
<path d="M5075 2611 c-63 -40 -76 -60 -50 -81 8 -7 15 -16 15 -21 0 -5 19 -39
42 -76 107 -174 125 -231 93 -292 -14 -27 -52 -64 -90 -86 -16 -10 -15 -14 11
-60 56 -98 47 -91 86 -67 38 23 80 78 98 127 l12 30 23 -29 23 -29 72 42 71
43 -22 36 c-58 98 -184 312 -207 352 -52 92 -93 150 -105 149 -7 0 -39 -17
-72 -38z"/>
<path d="M4705 2434 c-71 -25 -96 -103 -55 -169 34 -55 110 -62 164 -15 45 40
51 70 27 125 -11 25 -22 45 -24 45 -3 0 -20 6 -38 14 -29 11 -40 11 -74 0z"/>
<path d="M3545 2282 c-15 -48 -31 -96 -36 -107 -4 -11 -13 -37 -19 -57 -12
-41 -17 -43 -52 -29 -73 31 -321 102 -327 95 -9 -10 -41 -107 -41 -122 0 -6
39 -22 88 -37 48 -15 96 -31 107 -36 11 -4 53 -18 93 -30 39 -11 72 -24 72
-28 0 -14 -41 -146 -51 -163 -5 -10 -9 -25 -9 -33 0 -17 -10 -19 -42 -6 -13 6
-84 28 -158 51 -74 23 -146 46 -160 50 -56 20 -60 18 -81 -40 -28 -80 -27 -83
44 -104 62 -19 113 -35 302 -96 55 -18 120 -38 145 -45 25 -7 52 -15 61 -19
14 -6 23 12 54 111 21 65 52 165 71 223 19 58 46 143 60 190 15 47 39 123 55
170 15 47 25 88 21 91 -4 4 -34 14 -67 24 -33 9 -70 21 -81 25 -20 8 -24 2
-49 -78z"/>
</g>
</svg>
